<svg width="102" height="28" viewBox="0 0 102 28" fill="none" xmlns="http://www.w3.org/2000/svg">
<path d="M0.094125 27V1.08H5.37413V11.736H9.95013V1.08H15.2301V27H9.95013V15.512H5.37413V27H0.094125ZM17.9376 27L22.9616 1.08H28.8176L33.8096 27H28.9136L27.9856 21.304H23.8896L22.8976 27H17.9376ZM24.3696 18.072H27.4736L25.9056 7.608L24.3696 18.072ZM36.4364 27V1.08H43.1564C44.9057 1.08 46.399 1.28267 47.6364 1.688C48.895 2.072 49.855 2.76533 50.5164 3.768C51.199 4.77067 51.5404 6.15733 51.5404 7.928C51.5404 8.99467 51.4444 9.944 51.2524 10.776C51.0817 11.5867 50.7617 12.3013 50.2924 12.92C49.8444 13.5173 49.2044 13.9973 48.3724 14.36L51.9564 27H46.5484L43.5724 15.256H41.7164V27H36.4364ZM41.7164 12.12H43.2524C44.1057 12.12 44.7777 11.9813 45.2684 11.704C45.759 11.4267 46.1004 11.0107 46.2924 10.456C46.5057 9.88 46.6124 9.176 46.6124 8.344C46.6124 7.14933 46.3884 6.24266 45.9404 5.624C45.5137 4.984 44.703 4.664 43.5084 4.664H41.7164V12.12ZM55.0926 27V1.08H61.4286C63.626 1.08 65.3326 1.368 66.5486 1.944C67.786 2.49867 68.6606 3.384 69.1726 4.6C69.6846 5.79467 69.9406 7.33066 69.9406 9.208V18.648C69.9406 20.568 69.6846 22.1467 69.1726 23.384C68.6606 24.6213 67.7966 25.5387 66.5806 26.136C65.386 26.712 63.7113 27 61.5566 27H55.0926ZM60.3726 23.32H61.4926C62.474 23.32 63.1673 23.1707 63.5726 22.872C63.9993 22.552 64.266 22.0933 64.3726 21.496C64.4793 20.8773 64.5326 20.12 64.5326 19.224V8.536C64.5326 7.64 64.458 6.92533 64.3086 6.392C64.1806 5.83733 63.9033 5.432 63.4766 5.176C63.0713 4.92 62.3993 4.792 61.4606 4.792H60.3726V23.32Z" fill="#F4F4F4"/>
<path d="M73.7564 27V1.08H79.9644C81.5217 1.08 82.7484 1.368 83.6444 1.944C84.5404 2.52 85.1697 3.32 85.5324 4.344C85.9164 5.368 86.1084 6.57333 86.1084 7.96C86.1084 9.176 85.9057 10.3067 85.5004 11.352C85.1164 12.376 84.4657 13.1973 83.5484 13.816C82.6524 14.4347 81.4684 14.744 79.9964 14.744H76.1884V27H73.7564ZM76.1884 12.92H79.2924C80.3377 12.92 81.1804 12.7707 81.8204 12.472C82.4817 12.152 82.9617 11.6293 83.2604 10.904C83.559 10.1787 83.7084 9.19733 83.7084 7.96C83.7084 6.63733 83.5804 5.61333 83.3244 4.888C83.0684 4.14133 82.6204 3.62933 81.9804 3.352C81.3617 3.05333 80.4764 2.904 79.3244 2.904H76.1884V12.92ZM95.2411 27.32C93.4918 27.32 92.1371 26.9573 91.1771 26.232C90.2385 25.5067 89.5878 24.536 89.2251 23.32C88.8625 22.0827 88.6811 20.7173 88.6811 19.224V8.92C88.6811 7.32 88.8625 5.912 89.2251 4.696C89.6091 3.48 90.2811 2.53067 91.2411 1.848C92.2011 1.16533 93.5345 0.823999 95.2411 0.823999C96.7985 0.823999 98.0145 1.12267 98.8891 1.72C99.7851 2.31733 100.425 3.17067 100.809 4.28C101.193 5.368 101.385 6.66933 101.385 8.184V9.752H99.0811V8.248C99.0811 7.11733 98.9851 6.14666 98.7931 5.336C98.6225 4.52533 98.2598 3.896 97.7051 3.448C97.1505 3 96.3398 2.776 95.2731 2.776C94.0998 2.776 93.2145 3.02133 92.6171 3.512C92.0411 3.98133 91.6465 4.65333 91.4331 5.528C91.2411 6.40267 91.1451 7.416 91.1451 8.568V19.608C91.1451 20.888 91.2625 21.9547 91.4971 22.808C91.7531 23.6613 92.1798 24.3013 92.7771 24.728C93.3745 25.1547 94.2065 25.368 95.2731 25.368C96.3611 25.368 97.1718 25.1333 97.7051 24.664C98.2598 24.1947 98.6225 23.544 98.7931 22.712C98.9851 21.8587 99.0811 20.8667 99.0811 19.736V18.04H101.385V19.576C101.385 21.0907 101.204 22.4347 100.841 23.608C100.5 24.76 99.8811 25.6667 98.9851 26.328C98.1105 26.9893 96.8625 27.32 95.2411 27.32Z" fill="#74ABFF"/>
</svg>
