<svg width="210" height="144" viewBox="0 0 210 144" fill="none" xmlns="http://www.w3.org/2000/svg">
<g clip-path="url(#clip0_52_188)">
<path d="M133.26 -1.27312L126.944 6.35162C125.672 7.88703 125.999 10.2567 127.674 11.6446L135.995 18.5369C137.67 19.9248 140.059 19.8052 141.331 18.2698L147.647 10.6451C148.919 9.10968 148.592 6.74002 146.917 5.35211L138.596 -1.54018C136.921 -2.92783 134.532 -2.80852 133.26 -1.27312ZM68.4526 -18.6622L62.1363 -11.0372C60.8645 -9.50176 61.1916 -7.1321 62.8671 -5.74419L71.1874 1.14809C72.8629 2.53599 75.2521 2.41644 76.5239 0.881034L82.8402 -6.74399C84.1121 -8.27939 83.785 -10.6491 82.1095 -12.037L73.7891 -18.9292C72.1137 -20.3172 69.7245 -20.1976 68.4526 -18.6622ZM182.556 64.1284L194.624 49.5592C195.896 48.0238 195.569 45.6542 193.894 44.2662L162.085 17.9169C160.409 16.529 158.02 16.6485 156.748 18.184L132.602 47.3338C131.33 48.8692 131.657 51.2388 133.332 52.6267L165.141 78.9758C166.816 80.3638 169.206 80.2442 170.477 78.7088L182.551 64.1337L182.556 64.1284ZM198.067 16.1159L191.751 23.7409C190.479 25.2763 190.806 27.646 192.482 29.0339L200.802 35.9262C202.478 37.3141 204.867 37.1945 206.139 35.6591L212.455 28.0341C213.727 26.4987 213.4 24.1291 211.724 22.7411L203.404 15.8489C201.728 14.461 199.339 14.5805 198.067 16.1159ZM141.989 -30.3371C143.261 -31.8725 142.934 -34.2421 141.259 -35.63L109.45 -61.9791C107.775 -63.367 105.386 -63.2475 104.114 -61.7121L79.967 -32.5623C78.6951 -31.0268 79.0223 -28.6572 80.6977 -27.2693L112.507 -0.919936C114.182 0.467969 116.571 0.348415 117.843 -1.18699L141.99 -30.3368L141.989 -30.3371ZM129.817 32.1699C131.089 30.6345 130.762 28.2648 129.086 26.8769L97.2773 0.527571C95.6019 -0.860336 93.2127 -0.740771 91.9408 0.794628L67.7944 29.9442C66.5225 31.4796 66.8497 33.8492 68.5251 35.2371L100.334 61.5862C102.009 62.9741 104.398 62.8546 105.67 61.3192L129.817 32.1696L129.817 32.1699ZM218.311 -26.8481L224.625 -34.4703C225.897 -36.0057 225.57 -38.3754 223.895 -39.7633L215.574 -46.6556C213.899 -48.0435 211.51 -47.9239 210.238 -46.3885L203.924 -38.7663C202.652 -37.2309 202.979 -34.8612 204.655 -33.4733L212.975 -26.581C214.65 -25.1931 217.04 -25.3127 218.311 -26.8481ZM129.159 80.7765L135.475 73.1518C136.747 71.6164 136.42 69.2467 134.744 67.8588L126.424 60.9665C124.748 59.5786 122.359 59.6982 121.087 61.2336L114.771 68.8583C113.5 70.3937 113.827 72.7634 115.502 74.1513L123.822 81.0436C125.498 82.4315 127.887 82.3119 129.159 80.7765ZM156.947 -77.6802C155.675 -76.1448 156.002 -73.7751 157.678 -72.3872L189.487 -46.0379C191.162 -44.65 193.551 -44.7695 194.823 -46.3049L201.137 -53.9271C202.409 -55.4626 202.082 -57.8322 200.406 -59.2201L168.598 -85.5695C166.922 -86.9574 164.533 -86.8378 163.261 -85.3024L156.947 -77.6802ZM124.679 -63.4269C126.355 -62.039 128.744 -62.1585 130.016 -63.694L154.16 -92.8413C155.432 -94.3767 155.105 -96.7463 153.429 -98.1342L121.618 -124.486C119.942 -125.874 117.553 -125.754 116.281 -124.219L92.1365 -95.0717C90.8646 -93.5363 91.1918 -91.1667 92.8672 -89.7788L124.679 -63.4269ZM206.797 -12.948C208.069 -14.4834 207.742 -16.8531 206.066 -18.241L174.258 -44.5904C172.582 -45.9783 170.193 -45.8587 168.921 -44.3233L144.774 -15.1732C143.502 -13.6378 143.829 -11.2681 145.505 -9.88021L177.314 16.4691C178.989 17.857 181.378 17.7375 182.65 16.2021L206.797 -12.948ZM56.2783 43.847L49.9615 51.4726C48.6896 53.008 49.0168 55.3776 50.6923 56.7655L59.0126 63.6578C60.6881 65.0457 63.0772 64.9262 64.3491 63.3908L70.6659 55.7652C71.9378 54.2298 71.6106 51.8601 69.9351 50.4722L61.6148 43.5799C59.9393 42.192 57.5501 42.3116 56.2783 43.847ZM145.433 -63.7801L139.117 -56.1551C137.845 -54.6197 138.172 -52.25 139.847 -50.8621L148.168 -43.9698C149.843 -42.5819 152.232 -42.7015 153.504 -44.2369L159.82 -51.8619C161.092 -53.3973 160.765 -55.767 159.09 -57.1549L150.769 -64.0472C149.094 -65.4351 146.704 -65.3152 145.433 -63.7801ZM180.31 91.5406L188.631 98.4334C190.306 99.8213 192.695 99.7017 193.967 98.1663L200.283 90.5413C201.555 89.0059 201.228 86.6362 199.553 85.2483L191.232 78.3556C189.556 76.9676 187.167 77.0872 185.895 78.6226L179.579 86.2476C178.307 87.783 178.634 90.1527 180.31 91.5406ZM239.063 -27.1985C237.387 -28.5864 234.998 -28.4669 233.726 -26.9315L209.582 2.21586C208.31 3.75126 208.637 6.12092 210.313 7.50882L242.122 33.8587C243.797 35.2466 246.187 35.127 247.458 33.5916L271.603 4.4443C272.875 2.90889 272.548 0.539234 270.872 -0.84867L239.063 -27.1985ZM198.141 70.0163L206.461 76.9086C208.136 78.2965 210.526 78.1769 211.797 76.6415L235.944 47.4917C237.216 45.9563 236.889 43.5866 235.213 42.1987L226.893 35.3064C225.218 33.9185 222.828 34.0381 221.557 35.5735L197.41 64.7233C196.138 66.2587 196.465 68.6284 198.141 70.0163ZM121.158 115.137L152.967 141.486C154.642 142.874 157.032 142.755 158.303 141.219L182.451 112.069C183.722 110.533 183.395 108.164 181.72 106.776L149.911 80.4268C148.236 79.0389 145.847 79.1585 144.575 80.6939L120.428 109.844C119.156 111.379 119.483 113.749 121.158 115.137ZM79.7656 63.3049L73.4497 70.9294C72.1778 72.4648 72.505 74.8344 74.1805 76.2224L105.989 102.572C107.665 103.96 110.054 103.84 111.326 102.305L117.642 94.6802C118.914 93.1448 118.586 90.7751 116.911 89.3872L85.102 63.0379C83.4269 61.6502 81.0374 61.7695 79.7656 63.3049ZM65.1089 -33.1511L77.1821 -47.7259C78.454 -49.2613 78.1268 -51.6309 76.4514 -53.0188L68.128 -59.9136C66.4525 -61.3015 64.0634 -61.182 62.7915 -59.6466L38.645 -30.497C37.3731 -28.9616 37.7003 -26.592 39.3758 -25.204L47.6992 -18.3093C49.3746 -16.9213 51.7638 -17.0409 53.0357 -18.5763L65.1089 -33.1511ZM94.282 -74.5439L85.9586 -81.4387C84.2832 -82.8266 81.894 -82.7071 80.6221 -81.1717L74.3058 -73.5466C73.034 -72.0112 73.3611 -69.6416 75.0366 -68.2537L83.36 -61.3589C85.0354 -59.971 87.4246 -60.0905 88.6965 -61.6259L95.0128 -69.2509C96.2846 -70.7863 95.9575 -73.156 94.282 -74.5439ZM35.5241 44.2008C37.1996 45.5887 39.5887 45.4691 40.8606 43.9337L65.0078 14.7833C66.2796 13.2479 65.9525 10.8783 64.277 9.49035L32.4651 -16.8615C30.7896 -18.2494 28.4005 -18.1299 27.1286 -16.5945L2.98146 12.5559C1.70958 14.0913 2.03675 16.461 3.71222 17.8489L35.5241 44.2008Z" fill="url(#paint0_linear_52_188)"/>
</g>
<defs>
<linearGradient id="paint0_linear_52_188" x1="0.678589" y1="15.3359" x2="118.584" y2="-126.999" gradientUnits="userSpaceOnUse">
<stop stop-color="#69EACB"/>
<stop offset="0.48" stop-color="#339966"/>
<stop offset="1" stop-color="#66CC99"/>
</linearGradient>
<clipPath id="clip0_52_188">
<rect width="184.829" height="201.691" fill="white" transform="translate(0.677979 15.3367) rotate(-50.3628)"/>
</clipPath>
</defs>
</svg>
