<svg width="223" height="463" viewBox="0 0 223 463" fill="none" xmlns="http://www.w3.org/2000/svg">
<g clip-path="url(#clip0_52_194)">
<path d="M-14.1153 216.26L-25.0609 230.547C-27.265 233.423 -26.8113 237.472 -24.0474 239.589L-10.3221 250.105C-7.55826 252.222 -3.53116 251.607 -1.32704 248.73L9.61854 234.443C11.8227 231.566 11.3689 227.518 8.60506 225.4L-5.12023 214.885C-7.88361 212.768 -11.9112 213.383 -14.1153 216.26ZM-122.508 197.221L-133.454 211.509C-135.658 214.385 -135.204 218.434 -132.44 220.551L-118.715 231.067C-115.951 233.184 -111.924 232.569 -109.72 229.692L-98.774 215.405C-96.5699 212.528 -97.0237 208.479 -99.7875 206.362L-113.513 195.846C-116.277 193.729 -120.304 194.344 -122.508 197.221ZM66.1974 321.113L87.112 293.814C89.3162 290.937 88.8624 286.888 86.0985 284.771L33.6265 244.57C30.8626 242.453 26.8355 243.068 24.6314 245.945L-17.2141 300.564C-19.4183 303.441 -18.9645 307.49 -16.2007 309.607L36.2709 349.807C39.0347 351.925 43.0619 351.309 45.266 348.432L66.189 321.123L66.1974 321.113ZM94.2782 235.298L83.3322 249.585C81.1281 252.462 81.5818 256.511 84.3457 258.628L98.0709 269.144C100.835 271.261 104.862 270.646 107.066 267.769L118.012 253.482C120.216 250.605 119.762 246.556 116.999 244.439L103.273 233.923C100.509 231.806 96.4823 232.421 94.2782 235.298ZM1.77178 164.426C3.9759 161.549 3.52215 157.5 0.758284 155.383L-51.7132 115.182C-54.4771 113.065 -58.5042 113.68 -60.7083 116.557L-102.554 171.176C-104.758 174.053 -104.304 178.102 -101.54 180.219L-49.0684 220.42C-46.3045 222.538 -42.2774 221.922 -40.0733 219.045L1.77228 164.426L1.77178 164.426ZM-21.281 274.775C-19.0769 271.898 -19.5307 267.849 -22.2945 265.732L-74.7666 225.531C-77.5304 223.414 -81.5575 224.029 -83.7617 226.906L-125.607 281.525C-127.811 284.402 -127.357 288.45 -124.593 290.568L-72.1218 330.768C-69.3579 332.885 -65.3308 332.27 -63.1267 329.393L-21.2815 274.774L-21.281 274.775ZM130.119 157.419L141.061 143.137C143.265 140.26 142.812 136.212 140.048 134.094L126.322 123.579C123.559 121.461 119.532 122.077 117.327 124.954L106.385 139.236C104.181 142.113 104.635 146.161 107.399 148.279L121.124 158.794C123.888 160.912 127.915 160.296 130.119 157.419ZM-24.3795 359.079L-13.4339 344.792C-11.2298 341.915 -11.6835 337.866 -14.4474 335.749L-28.1727 325.233C-30.9365 323.116 -34.9636 323.732 -37.1677 326.608L-48.1133 340.895C-50.3174 343.772 -49.8637 347.821 -47.0998 349.938L-33.3746 360.454C-30.6107 362.571 -26.5836 361.956 -24.3795 359.079ZM28.8924 79.8655C26.6883 82.7424 27.142 86.7909 29.9059 88.9084L82.3779 129.109C85.1418 131.227 89.1689 130.611 91.373 127.734L102.315 113.452C104.519 110.575 104.065 106.527 101.302 104.409L48.8295 64.2084C46.0656 62.0909 42.0385 62.7065 39.8344 65.5834L28.8924 79.8655ZM-26.0156 110.071C-23.2517 112.188 -19.2246 111.573 -17.0205 108.696L24.8215 54.0815C27.0256 51.2046 26.5719 47.1561 23.808 45.0385L-28.669 4.83398C-31.4329 2.71648 -35.46 3.33207 -37.6641 6.209L-79.5061 60.8233C-81.7102 63.7002 -81.2565 67.7487 -78.4926 69.8662L-26.0156 110.071ZM110.165 183.464C112.369 180.587 111.916 176.539 109.152 174.421L56.6797 134.22C53.9159 132.103 49.8888 132.718 47.6846 135.595L5.83868 190.215C3.63456 193.092 4.0883 197.14 6.85217 199.258L59.3242 239.459C62.0881 241.576 66.1152 240.96 68.3193 238.083L110.165 183.464ZM-145.564 307.575L-156.511 321.863C-158.715 324.74 -158.261 328.788 -155.497 330.906L-141.772 341.421C-139.008 343.539 -134.981 342.923 -132.777 340.046L-121.83 325.758C-119.626 322.881 -120.08 318.833 -122.844 316.715L-136.569 306.2C-139.333 304.082 -143.36 304.698 -145.564 307.575ZM8.93839 105.91L-2.00759 120.198C-4.21171 123.075 -3.75796 127.123 -0.994085 129.241L12.7312 139.756C15.4951 141.874 19.5222 141.258 21.7263 138.381L32.6723 124.094C34.8764 121.217 34.4226 117.168 31.6588 115.051L17.9335 104.535C15.1696 102.418 11.1421 103.034 8.93839 105.91ZM61.2933 368.977L75.0195 379.493C77.7834 381.611 81.8105 380.995 84.0146 378.118L94.9606 363.831C97.1647 360.954 96.711 356.906 93.9471 354.788L80.2208 344.272C77.457 342.154 73.4299 342.77 71.2257 345.647L60.2798 359.934C58.0756 362.811 58.5294 366.86 61.2933 368.977ZM165.069 153.264C162.305 151.146 158.278 151.762 156.074 154.639L114.232 209.253C112.028 212.13 112.482 216.179 115.246 218.296L167.719 258.498C170.483 260.615 174.51 260 176.714 257.123L218.556 202.508C220.76 199.631 220.306 195.583 217.542 193.465L165.069 153.264ZM92.1938 328.646L105.919 339.162C108.683 341.279 112.71 340.663 114.914 337.787L156.76 283.168C158.964 280.291 158.51 276.242 155.746 274.125L142.021 263.609C139.257 261.492 135.23 262.107 133.026 264.984L91.1803 319.603C88.9762 322.48 89.43 326.529 92.1938 328.646ZM-39.256 419.963L13.2156 460.163C15.9794 462.28 20.0065 461.665 22.2107 458.788L64.057 404.168C66.2611 401.291 65.8074 397.242 63.0435 395.125L10.572 354.925C7.80814 352.807 3.78103 353.423 1.5769 356.3L-40.2695 410.92C-42.4732 413.796 -42.0198 417.845 -39.256 419.963ZM-106.819 337.262L-117.764 351.548C-119.969 354.425 -119.515 358.473 -116.751 360.591L-64.2789 400.792C-61.5151 402.909 -57.488 402.293 -55.2838 399.417L-44.3387 385.13C-42.1345 382.253 -42.5883 378.205 -45.3522 376.087L-97.8242 335.887C-100.588 333.77 -104.615 334.385 -106.819 337.262ZM-127.544 172.697L-106.621 145.388C-104.417 142.511 -104.871 138.462 -107.635 136.345L-121.365 125.825C-124.129 123.708 -128.156 124.324 -130.36 127.2L-172.205 181.819C-174.409 184.696 -173.956 188.744 -171.192 190.862L-157.461 201.381C-154.698 203.499 -150.67 202.883 -148.466 200.006L-127.544 172.697ZM-76.7347 96.0125L-90.465 85.4932C-93.2289 83.3757 -97.256 83.9913 -99.4601 86.8682L-110.406 101.155C-112.61 104.032 -112.156 108.081 -109.393 110.198L-95.6623 120.718C-92.8984 122.835 -88.8713 122.22 -86.6672 119.343L-75.7212 105.055C-73.5171 102.179 -73.9708 98.13 -76.7347 96.0125ZM-180.519 311.736C-177.755 313.854 -173.728 313.238 -171.524 310.361L-129.677 255.741C-127.473 252.864 -127.927 248.816 -130.691 246.698L-183.168 206.494C-185.932 204.376 -189.959 204.992 -192.163 207.869L-234.009 262.489C-236.213 265.365 -235.76 269.414 -232.996 271.531L-180.519 311.736Z" fill="url(#paint0_linear_52_194)"/>
</g>
<defs>
<linearGradient id="paint0_linear_52_194" x1="-238" y1="267.698" x2="-33.6733" y2="1.00001" gradientUnits="userSpaceOnUse">
<stop stop-color="#69EACB"/>
<stop offset="0.48" stop-color="#339966"/>
<stop offset="1" stop-color="#66CC99"/>
</linearGradient>
<clipPath id="clip0_52_194">
<rect width="335.976" height="322.772" fill="white" transform="translate(-238 266.701) rotate(-52.543)"/>
</clipPath>
</defs>
</svg>
