<svg width="53" height="141" viewBox="0 0 53 141" fill="none" xmlns="http://www.w3.org/2000/svg">
<g clip-path="url(#clip0_52_191)">
<path d="M70.0726 65.2238L67.2213 68.6659C66.6471 69.3591 66.9918 70.592 67.9911 71.4198L72.9539 75.5308C73.9532 76.3587 75.2288 76.4678 75.803 75.7747L78.6543 72.3325C79.2285 71.6394 78.8838 70.4065 77.8845 69.5786L72.9217 65.4676C71.9225 64.6399 70.6468 64.5306 70.0726 65.2238ZM34.0034 51.7304L31.1519 55.1727C30.5777 55.8658 30.9224 57.0987 31.9217 57.9266L36.8845 62.0376C37.8839 62.8654 39.1594 62.9746 39.7336 62.2814L42.585 58.8391C43.1592 58.146 42.8146 56.9131 41.8152 56.0852L36.8524 51.9742C35.8531 51.1464 34.5775 51.0372 34.0034 51.7304ZM101.226 102.121L106.674 95.5433C107.249 94.8502 106.904 93.6173 105.904 92.7894L86.9317 77.073C85.9324 76.2452 84.6568 76.136 84.0827 76.8292L73.1817 89.9887C72.6076 90.6819 72.9522 91.9148 73.9516 92.7426L92.9242 108.459C93.9235 109.287 95.1991 109.396 95.7732 108.703L101.224 102.123L101.226 102.121ZM106.142 78.7172L103.291 82.1595C102.717 82.8526 103.061 84.0855 104.061 84.9134L109.023 89.0244C110.023 89.8522 111.298 89.9614 111.872 89.2682L114.724 85.8259C115.298 85.1328 114.953 83.8999 113.954 83.072L108.991 78.961C107.992 78.1332 106.716 78.024 106.142 78.7172ZM72.6939 51.0097C73.268 50.3166 72.9234 49.0837 71.924 48.2558L52.9514 32.5396C51.9521 31.7117 50.6765 31.6026 50.1024 32.2957L39.2015 45.4553C38.6273 46.1484 38.9719 47.3813 39.9713 48.2092L58.9441 63.9256C59.9434 64.7534 61.2189 64.8626 61.7931 64.1694L72.694 51.0099L72.6939 51.0097ZM70.6049 82.0498C71.179 81.3567 70.8344 80.1237 69.835 79.2959L50.8623 63.5795C49.8629 62.7517 48.5874 62.6425 48.0132 63.3356L37.1124 76.4951C36.5382 77.1882 36.8829 78.4211 37.8822 79.249L56.8548 94.9652C57.8542 95.793 59.1297 95.9022 59.7039 95.2091L70.6047 82.0496L70.6049 82.0498ZM113.962 58.228L116.812 54.787C117.386 54.0938 117.041 52.8609 116.042 52.0331L111.079 47.9221C110.08 47.0943 108.804 46.9851 108.23 47.6782L105.38 51.1193C104.806 51.8124 105.15 53.0453 106.15 53.8732L111.112 57.9842C112.112 58.812 113.387 58.9212 113.962 58.228ZM73.7141 106.815L76.5654 103.372C77.1396 102.679 76.795 101.446 75.7956 100.619L70.8328 96.5076C69.8335 95.6797 68.5579 95.5706 67.9838 96.2637L65.1324 99.7059C64.5582 100.399 64.9029 101.632 65.9022 102.46L70.865 106.571C71.8644 107.399 73.1399 107.508 73.7141 106.815ZM77.36 27.9086C76.7858 28.6018 77.1305 29.8347 78.1298 30.6625L97.1026 46.3789C98.102 47.2067 99.3775 47.3159 99.9517 46.6228L102.802 43.1817C103.376 42.4886 103.032 41.2557 102.032 40.4278L83.0595 24.7114C82.0601 23.8836 80.7846 23.7744 80.2104 24.4676L77.36 27.9086ZM61.0331 32.8855C62.0324 33.7133 63.3079 33.8225 63.8821 33.1294L74.7821 19.9709C75.3563 19.2778 75.0116 18.0449 74.0123 17.217L55.0377 1.49914C54.0383 0.671311 52.7628 0.562137 52.1886 1.25528L41.2886 14.4137C40.7145 15.1069 41.0591 16.3398 42.0585 17.1676L61.0331 32.8855ZM108.763 64.5031C109.338 63.81 108.993 62.5771 107.994 61.7492L89.0208 46.0328C88.0215 45.205 86.7459 45.0958 86.1718 45.789L75.2707 58.9487C74.6966 59.6418 75.0412 60.8747 76.0406 61.7026L95.0133 77.419C96.0127 78.2468 97.2882 78.356 97.8624 77.6628L108.763 64.5031ZM31.9135 82.7715L29.0619 86.214C28.4877 86.9071 28.8323 88.1401 29.8317 88.9679L34.7945 93.0789C35.7938 93.9067 37.0694 94.0159 37.6435 93.3227L40.4952 89.8802C41.0694 89.1871 40.7247 87.9541 39.7254 87.1263L34.7626 83.0153C33.7632 82.1875 32.4877 82.0783 31.9135 82.7715ZM72.1619 34.1837L69.3105 37.626C68.7363 38.3192 69.0809 39.5521 70.0803 40.3799L75.0431 44.4909C76.0424 45.3187 77.318 45.4279 77.8921 44.7348L80.7436 41.2925C81.3178 40.5993 80.9731 39.3664 79.9738 38.5386L75.011 34.4276C74.0116 33.5998 72.736 33.4907 72.1619 34.1837ZM101.972 115.953L106.935 120.065C107.934 120.892 109.21 121.002 109.784 120.308L112.635 116.866C113.21 116.173 112.865 114.94 111.866 114.112L106.902 110.001C105.903 109.173 104.628 109.064 104.053 109.757L101.202 113.199C100.628 113.893 100.972 115.125 101.972 115.953ZM125.089 59.5275C124.09 58.6997 122.814 58.5905 122.24 59.2836L111.34 72.4421C110.766 73.1352 111.111 74.3681 112.11 75.196L131.083 90.9127C132.083 91.7405 133.358 91.8497 133.932 91.1565L144.832 77.9981C145.406 77.305 145.062 76.072 144.062 75.2442L125.089 59.5275ZM110.021 106.236L114.984 110.347C115.984 111.175 117.259 111.284 117.833 110.591L128.734 97.4316C129.308 96.7385 128.964 95.5056 127.964 94.6777L123.002 90.5667C122.002 89.7389 120.727 89.6297 120.153 90.3229L109.252 103.482C108.677 104.176 109.022 105.409 110.021 106.236ZM71.8621 123.784L90.8347 139.501C91.834 140.328 93.1096 140.438 93.6837 139.745L104.585 126.585C105.159 125.892 104.814 124.659 103.815 123.831L84.8424 108.115C83.8431 107.287 82.5676 107.178 81.9934 107.871L71.0923 121.031C70.5182 121.724 70.8627 122.957 71.8621 123.784ZM45.9229 94.3772L43.0717 97.8192C42.4975 98.5124 42.8422 99.7453 43.8415 100.573L62.8143 116.29C63.8137 117.117 65.0892 117.227 65.6634 116.533L68.5146 113.091C69.0888 112.398 68.7441 111.165 67.7448 110.337L48.772 94.6211C47.7728 93.7934 46.4971 93.6841 45.9229 94.3772ZM31.1741 44.0962L36.6245 37.5165C37.1987 36.8233 36.854 35.5904 35.8546 34.7626L30.8901 30.6501C29.8907 29.8222 28.6152 29.7131 28.041 30.4062L17.1402 43.5656C16.566 44.2588 16.9107 45.4917 17.91 46.3195L22.8746 50.432C23.874 51.2599 25.1495 51.369 25.7237 50.6759L31.1741 44.0962ZM43.9042 25.0452L38.9396 20.9327C37.9403 20.1048 36.6647 19.9957 36.0906 20.6888L33.2391 24.1311C32.6649 24.8243 33.0096 26.0572 34.0089 26.885L38.9735 30.9975C39.9729 31.8253 41.2484 31.9345 41.8226 31.2414L44.674 27.7991C45.2482 27.1059 44.9036 25.873 43.9042 25.0452ZM20.7845 81.4735C21.7838 82.3013 23.0593 82.4105 23.6335 81.7173L34.5346 68.5575C35.1088 67.8644 34.7642 66.6315 33.7648 65.8036L14.7902 50.0857C13.7909 49.2579 12.5153 49.1487 11.9412 49.8419L1.04005 63.0017C0.465864 63.6948 0.810517 64.9278 1.80987 65.7556L20.7845 81.4735Z" fill="url(#paint0_linear_52_191)"/>
</g>
<defs>
<linearGradient id="paint0_linear_52_191" x1="0.000427246" y1="64.2567" x2="53.2282" y2="0.000261052" gradientUnits="userSpaceOnUse">
<stop stop-color="#69EACB"/>
<stop offset="0.48" stop-color="#339966"/>
<stop offset="1" stop-color="#66CC99"/>
</linearGradient>
<clipPath id="clip0_52_191">
<rect width="83.4401" height="120.301" fill="white" transform="translate(0 64.2572) rotate(-50.3628)"/>
</clipPath>
</defs>
</svg>
