<svg width="200" height="200" viewBox="0 0 200 200" fill="none" xmlns="http://www.w3.org/2000/svg">
<path d="M12.5 48.4687C12.9113 48.4711 13.319 48.3923 13.6997 48.2368C14.0804 48.0813 14.4267 47.8521 14.7187 47.5625L47.5625 14.7187C47.8539 14.4274 48.085 14.0815 48.2427 13.7008C48.4004 13.3201 48.4815 12.9121 48.4815 12.5C48.4815 12.0879 48.4004 11.6799 48.2427 11.2992C48.085 10.9185 47.8539 10.5726 47.5625 10.2812C47.2711 9.98987 46.9252 9.75874 46.5445 9.60106C46.1638 9.44337 45.7558 9.36221 45.3437 9.36221C44.5116 9.36221 43.7134 9.69279 43.125 10.2812L10.2812 43.125C9.98834 43.4155 9.75586 43.7611 9.59721 44.1419C9.43855 44.5228 9.35687 44.9312 9.35687 45.3437C9.35687 45.7563 9.43855 46.1647 9.59721 46.5455C9.75586 46.9264 9.98834 47.272 10.2812 47.5625C10.5732 47.8521 10.9195 48.0813 11.3003 48.2368C11.681 48.3923 12.0887 48.4711 12.5 48.4687ZM12.5 84.0312C12.9113 84.0336 13.319 83.9548 13.6997 83.7993C14.0804 83.6438 14.4267 83.4146 14.7187 83.125L83.125 14.7187C83.4164 14.4274 83.6475 14.0815 83.8052 13.7008C83.9629 13.3201 84.044 12.9121 84.044 12.5C84.044 12.0879 83.9629 11.6799 83.8052 11.2992C83.6475 10.9185 83.4164 10.5726 83.125 10.2812C82.8336 9.98987 82.4877 9.75874 82.107 9.60106C81.7263 9.44337 81.3183 9.36221 80.9062 9.36221C80.4942 9.36221 80.0862 9.44337 79.7055 9.60106C79.3248 9.75874 78.9789 9.98987 78.6875 10.2812L10.2812 78.6875C9.98834 78.978 9.75586 79.3236 9.59721 79.7044C9.43855 80.0853 9.35687 80.4937 9.35687 80.9062C9.35687 81.3188 9.43855 81.7272 9.59721 82.108C9.75586 82.4889 9.98834 82.8345 10.2812 83.125C10.5732 83.4146 10.9195 83.6438 11.3003 83.7993C11.681 83.9548 12.0887 84.0336 12.5 84.0312ZM12.5 119.531C13.3131 119.57 14.1091 119.289 14.7187 118.75L118.75 14.7187C119.338 14.1303 119.669 13.3322 119.669 12.5C119.669 11.6678 119.338 10.8697 118.75 10.2812C118.162 9.69279 117.363 9.36221 116.531 9.36221C115.699 9.36221 114.901 9.69279 114.312 10.2812L10.2812 114.187C9.98834 114.478 9.75586 114.824 9.59721 115.204C9.43855 115.585 9.35687 115.994 9.35687 116.406C9.35687 116.819 9.43855 117.227 9.59721 117.608C9.75586 117.989 9.98834 118.334 10.2812 118.625C10.5732 118.915 10.9195 119.144 11.3003 119.299C11.681 119.455 12.0887 119.534 12.5 119.531ZM12.5 155.094C12.9113 155.096 13.319 155.017 13.6997 154.862C14.0804 154.706 14.4267 154.477 14.7187 154.188L154.188 14.7187C154.479 14.4274 154.71 14.0815 154.868 13.7008C155.025 13.3201 155.107 12.9121 155.107 12.5C155.107 12.0879 155.025 11.6799 154.868 11.2992C154.71 10.9185 154.479 10.5726 154.188 10.2812C153.896 9.98987 153.55 9.75874 153.17 9.60106C152.789 9.44337 152.381 9.36221 151.969 9.36221C151.557 9.36221 151.149 9.44337 150.768 9.60106C150.387 9.75874 150.041 9.98987 149.75 10.2812L10.2812 149.75C9.98834 150.04 9.75586 150.386 9.59721 150.767C9.43855 151.148 9.35687 151.556 9.35687 151.969C9.35687 152.381 9.43855 152.79 9.59721 153.171C9.75586 153.551 9.98834 153.897 10.2812 154.188C10.5732 154.477 10.9195 154.706 11.3003 154.862C11.681 155.017 12.0887 155.096 12.5 155.094ZM189.719 10.2812C189.428 9.98834 189.083 9.75586 188.702 9.59721C188.321 9.43855 187.913 9.35687 187.5 9.35687C187.087 9.35687 186.679 9.43855 186.298 9.59721C185.917 9.75586 185.572 9.98834 185.281 10.2812L10.2812 185.281C9.98834 185.572 9.75586 185.917 9.59721 186.298C9.43855 186.679 9.35687 187.087 9.35687 187.5C9.35687 187.913 9.43855 188.321 9.59721 188.702C9.75586 189.083 9.98834 189.428 10.2812 189.719C10.5718 190.012 10.9174 190.244 11.2982 190.403C11.679 190.561 12.0875 190.643 12.5 190.643C12.9125 190.643 13.321 190.561 13.7018 190.403C14.0826 190.244 14.4282 190.012 14.7187 189.719L189.719 14.7187C190.012 14.4282 190.244 14.0826 190.403 13.7018C190.561 13.321 190.643 12.9125 190.643 12.5C190.643 12.0875 190.561 11.679 190.403 11.2982C190.244 10.9174 190.012 10.5718 189.719 10.2812ZM185.281 45.8125L45.8125 185.281C45.5196 185.572 45.2871 185.917 45.1285 186.298C44.9698 186.679 44.8881 187.087 44.8881 187.5C44.8881 187.913 44.9698 188.321 45.1285 188.702C45.2871 189.083 45.5196 189.428 45.8125 189.719C46.103 190.012 46.4486 190.244 46.8294 190.403C47.2103 190.561 47.6187 190.643 48.0312 190.643C48.4438 190.643 48.8522 190.561 49.233 190.403C49.6139 190.244 49.9595 190.012 50.25 189.719L189.719 50.25C190.307 49.6615 190.638 48.8634 190.638 48.0312C190.638 47.1991 190.307 46.4009 189.719 45.8125C189.13 45.224 188.332 44.8935 187.5 44.8935C186.668 44.8935 185.87 45.224 185.281 45.8125ZM185.281 81.25L81.25 185.281C80.9571 185.572 80.7246 185.917 80.566 186.298C80.4073 186.679 80.3256 187.087 80.3256 187.5C80.3256 187.913 80.4073 188.321 80.566 188.702C80.7246 189.083 80.9571 189.428 81.25 189.719C81.5405 190.012 81.8861 190.244 82.2669 190.403C82.6478 190.561 83.0562 190.643 83.4687 190.643C83.8813 190.643 84.2897 190.561 84.6705 190.403C85.0514 190.244 85.397 190.012 85.6875 189.719L189.719 85.8125C190.324 85.224 190.67 84.4193 190.682 83.5754C190.694 82.7315 190.37 81.9175 189.781 81.3125C189.193 80.7075 188.388 80.361 187.544 80.3493C186.7 80.3375 185.886 80.6615 185.281 81.25ZM185.281 116.875L116.875 185.281C116.582 185.572 116.35 185.917 116.191 186.298C116.032 186.679 115.951 187.087 115.951 187.5C115.951 187.913 116.032 188.321 116.191 188.702C116.35 189.083 116.582 189.428 116.875 189.719C117.166 190.012 117.511 190.244 117.892 190.403C118.273 190.561 118.681 190.643 119.094 190.643C119.506 190.643 119.915 190.561 120.296 190.403C120.676 190.244 121.022 190.012 121.312 189.719L189.719 121.312C190.307 120.724 190.638 119.926 190.638 119.094C190.638 118.262 190.307 117.463 189.719 116.875C189.13 116.287 188.332 115.956 187.5 115.956C186.668 115.956 185.87 116.287 185.281 116.875ZM185.281 152.437L152.437 185.281C152.145 185.572 151.912 185.917 151.753 186.298C151.595 186.679 151.513 187.087 151.513 187.5C151.513 187.913 151.595 188.321 151.753 188.702C151.912 189.083 152.145 189.428 152.437 189.719C152.728 190.012 153.074 190.244 153.454 190.403C153.835 190.561 154.244 190.643 154.656 190.643C155.069 190.643 155.477 190.561 155.858 190.403C156.239 190.244 156.584 190.012 156.875 189.719L189.719 156.875C190.307 156.287 190.638 155.488 190.638 154.656C190.638 153.824 190.307 153.026 189.719 152.437C189.13 151.849 188.332 151.518 187.5 151.518C186.668 151.518 185.87 151.849 185.281 152.437Z" fill="url(#paint0_linear_52_202)"/>
<defs>
<linearGradient id="paint0_linear_52_202" x1="9.35687" y1="9.35687" x2="190.682" y2="9.35687" gradientUnits="userSpaceOnUse">
<stop stop-color="#69EACB"/>
<stop offset="0.48" stop-color="#339966"/>
<stop offset="1" stop-color="#66CC99"/>
</linearGradient>
</defs>
</svg>
