<svg width="148" height="44" viewBox="0 0 148 44" fill="none" xmlns="http://www.w3.org/2000/svg">
<path d="M5 8.4375C5 5.33496 7.52246 2.8125 10.625 2.8125H44.375C47.4775 2.8125 50 5.33496 50 8.4375V36.5625C50 39.665 47.4775 42.1875 44.375 42.1875H10.625C7.52246 42.1875 5 39.665 5 36.5625V8.4375ZM9.21875 32.3438V35.1562C9.21875 35.9297 9.85156 36.5625 10.625 36.5625H13.4375C14.2109 36.5625 14.8438 35.9297 14.8438 35.1562V32.3438C14.8438 31.5703 14.2109 30.9375 13.4375 30.9375H10.625C9.85156 30.9375 9.21875 31.5703 9.21875 32.3438ZM41.5625 30.9375C40.7891 30.9375 40.1562 31.5703 40.1562 32.3438V35.1562C40.1562 35.9297 40.7891 36.5625 41.5625 36.5625H44.375C45.1484 36.5625 45.7812 35.9297 45.7812 35.1562V32.3438C45.7812 31.5703 45.1484 30.9375 44.375 30.9375H41.5625ZM9.21875 21.0938V23.9062C9.21875 24.6797 9.85156 25.3125 10.625 25.3125H13.4375C14.2109 25.3125 14.8438 24.6797 14.8438 23.9062V21.0938C14.8438 20.3203 14.2109 19.6875 13.4375 19.6875H10.625C9.85156 19.6875 9.21875 20.3203 9.21875 21.0938ZM41.5625 19.6875C40.7891 19.6875 40.1562 20.3203 40.1562 21.0938V23.9062C40.1562 24.6797 40.7891 25.3125 41.5625 25.3125H44.375C45.1484 25.3125 45.7812 24.6797 45.7812 23.9062V21.0938C45.7812 20.3203 45.1484 19.6875 44.375 19.6875H41.5625ZM9.21875 9.84375V12.6562C9.21875 13.4297 9.85156 14.0625 10.625 14.0625H13.4375C14.2109 14.0625 14.8438 13.4297 14.8438 12.6562V9.84375C14.8438 9.07031 14.2109 8.4375 13.4375 8.4375H10.625C9.85156 8.4375 9.21875 9.07031 9.21875 9.84375ZM41.5625 8.4375C40.7891 8.4375 40.1562 9.07031 40.1562 9.84375V12.6562C40.1562 13.4297 40.7891 14.0625 41.5625 14.0625H44.375C45.1484 14.0625 45.7812 13.4297 45.7812 12.6562V9.84375C45.7812 9.07031 45.1484 8.4375 44.375 8.4375H41.5625ZM19.0625 11.25V16.875C19.0625 18.4307 20.3193 19.6875 21.875 19.6875H33.125C34.6807 19.6875 35.9375 18.4307 35.9375 16.875V11.25C35.9375 9.69434 34.6807 8.4375 33.125 8.4375H21.875C20.3193 8.4375 19.0625 9.69434 19.0625 11.25ZM21.875 25.3125C20.3193 25.3125 19.0625 26.5693 19.0625 28.125V33.75C19.0625 35.3057 20.3193 36.5625 21.875 36.5625H33.125C34.6807 36.5625 35.9375 35.3057 35.9375 33.75V28.125C35.9375 26.5693 34.6807 25.3125 33.125 25.3125H21.875Z" fill="#006633"/>
<path d="M73.2 30.3C71.7467 30.3 70.4767 30 69.39 29.4C68.3033 28.8 67.4567 27.9533 66.85 26.86C66.25 25.76 65.95 24.4767 65.95 23.01C65.95 21.9433 66.1267 20.9667 66.48 20.08C66.84 19.1867 67.3433 18.4133 67.99 17.76C68.6433 17.1067 69.4133 16.6 70.3 16.24C71.1867 15.88 72.16 15.7 73.22 15.7C74.2867 15.7 75.2067 15.8333 75.98 16.1C76.76 16.3667 77.44 16.7467 78.02 17.24L76.86 19.07C76.42 18.6633 75.9067 18.36 75.32 18.16C74.7333 17.96 74.0867 17.86 73.38 17.86C72.6 17.86 71.8967 17.98 71.27 18.22C70.6433 18.46 70.1067 18.8033 69.66 19.25C69.22 19.69 68.88 20.2267 68.64 20.86C68.4067 21.4867 68.29 22.1967 68.29 22.99C68.29 24.07 68.5 24.9933 68.92 25.76C69.3467 26.5267 69.9467 27.1133 70.72 27.52C71.5 27.92 72.42 28.12 73.48 28.12C74.1867 28.12 74.8667 28.0167 75.52 27.81C76.18 27.5967 76.7967 27.2533 77.37 26.78L78.41 28.67C77.7367 29.1967 76.9667 29.6 76.1 29.88C75.24 30.16 74.2733 30.3 73.2 30.3ZM80.4753 30V20.1H82.6753V30H80.4753ZM81.5753 18.33C81.182 18.33 80.842 18.2033 80.5553 17.95C80.2686 17.6967 80.1253 17.3633 80.1253 16.95C80.1253 16.5433 80.2686 16.2133 80.5553 15.96C80.842 15.7 81.182 15.57 81.5753 15.57C81.9686 15.57 82.3086 15.7 82.5953 15.96C82.882 16.2133 83.0253 16.5433 83.0253 16.95C83.0253 17.3633 82.882 17.6967 82.5953 17.95C82.3086 18.2033 81.9686 18.33 81.5753 18.33ZM85.7292 30V20.1H87.9292V21.36C88.3426 20.8067 88.8226 20.41 89.3692 20.17C89.9159 19.9233 90.4826 19.8 91.0692 19.8C91.9759 19.8 92.7259 19.98 93.3192 20.34C93.9126 20.7 94.3526 21.1633 94.6392 21.73C94.9326 22.2967 95.0792 22.88 95.0792 23.48V30H92.8792V24.16C92.8792 23.4533 92.6659 22.8867 92.2392 22.46C91.8192 22.0333 91.2326 21.82 90.4792 21.82C89.9859 21.82 89.5459 21.93 89.1592 22.15C88.7792 22.37 88.4792 22.6767 88.2592 23.07C88.0392 23.4567 87.9292 23.91 87.9292 24.43V30H85.7292ZM98.3239 30V16H100.494L106.204 25.29L105.334 25.3L110.834 16H112.964V30H110.774L110.804 18.98L111.234 19.13L106.474 26.98H104.834L99.9839 19.13L100.344 18.98L100.374 30H98.3239ZM119.065 30.3C118.378 30.3 117.775 30.1733 117.255 29.92C116.735 29.66 116.328 29.2967 116.035 28.83C115.748 28.3567 115.605 27.8 115.605 27.16C115.605 26.62 115.742 26.1333 116.015 25.7C116.288 25.26 116.712 24.8967 117.285 24.61C117.865 24.3233 118.608 24.1333 119.515 24.04C120.422 23.94 121.512 23.9533 122.785 24.08L122.825 25.6C121.918 25.4733 121.138 25.42 120.485 25.44C119.832 25.46 119.295 25.5433 118.875 25.69C118.462 25.83 118.155 26.02 117.955 26.26C117.762 26.4933 117.665 26.7633 117.665 27.07C117.665 27.55 117.835 27.92 118.175 28.18C118.522 28.44 118.995 28.57 119.595 28.57C120.108 28.57 120.568 28.4767 120.975 28.29C121.382 28.1033 121.702 27.84 121.935 27.5C122.175 27.16 122.295 26.76 122.295 26.3V23.67C122.295 23.23 122.202 22.85 122.015 22.53C121.828 22.2033 121.545 21.95 121.165 21.77C120.785 21.59 120.312 21.5 119.745 21.5C119.225 21.5 118.712 21.58 118.205 21.74C117.698 21.8933 117.215 22.1367 116.755 22.47L116.135 20.85C116.755 20.43 117.402 20.1333 118.075 19.96C118.748 19.7867 119.395 19.7 120.015 19.7C120.935 19.7 121.722 19.8467 122.375 20.14C123.035 20.4267 123.542 20.8633 123.895 21.45C124.248 22.03 124.425 22.7633 124.425 23.65V30H122.445V28.83C122.112 29.3033 121.648 29.6667 121.055 29.92C120.462 30.1733 119.798 30.3 119.065 30.3ZM126.12 30.01L129.7 25.03L126.33 20.1H129.1L131.21 23.45L133.25 20.1H135.95L132.68 24.97L136.23 30H133.41L131.13 26.52L128.82 29.98L126.12 30.01Z" fill="#006633"/>
</svg>
