<svg width="222" height="51" viewBox="0 0 222 51" fill="none" xmlns="http://www.w3.org/2000/svg">
<path d="M24.28 44.664C28.696 44.664 32.28 44.312 35.032 43.608C34.136 37.016 30.872 31.48 25.24 27C24.6 32.696 24.28 38.584 24.28 44.664ZM0.0880003 21.816C0.0880003 15.288 0.696 9.016 1.912 3H59.416C58.52 7.48 57.496 11.352 56.344 14.616C54.808 14.68 52.568 14.744 49.624 14.808C46.744 14.872 44.536 14.936 43 15C43.704 12.824 44.088 10.904 44.152 9.24C37.56 9.24 32.152 9.432 27.928 9.816C27.416 12.12 26.776 15.64 26.008 20.376C39.064 21.976 49.176 25.144 56.344 29.88C55.576 38.008 54.2 45.048 52.216 51H4.024C1.4 41.784 0.0880003 32.056 0.0880003 21.816ZM68.8293 51C67.3573 44.856 66.6213 36.856 66.6213 27C66.6213 17.144 67.5173 9.144 69.3093 3H93.0213C91.9973 9.08 91.3253 14.552 91.0052 19.416C102.205 20.696 112.157 23.512 120.861 27.864C120.669 36.376 119.645 44.088 117.789 51H68.8293ZM90.8133 26.04C90.8133 32.824 91.6133 39.032 93.2133 44.664C96.5413 40.568 98.6533 35.224 99.5493 28.632C96.7333 27.16 93.8213 26.296 90.8133 26.04ZM150.621 12.792C150.621 26.168 149.533 38.904 147.357 51H125.565C126.397 44.728 126.813 37.24 126.813 28.536C126.813 19.768 126.237 11.256 125.085 3H150.429C150.557 7.352 150.621 10.616 150.621 12.792ZM209.189 2.328H212.357C216.453 2.328 219.493 1.848 221.477 0.887999C218.661 5.048 215.941 8.664 213.317 11.736H211.781C208.517 11.736 205.349 11.224 202.277 10.2C197.925 13.784 194.437 18.552 191.813 24.504C198.597 26.232 206.149 27.256 214.469 27.576C216.389 32.44 217.701 40.248 218.405 51H193.541C192.453 46.264 190.789 41.912 188.549 37.944C186.373 33.912 184.101 31.16 181.733 29.688C181.285 34.936 181.061 39.16 181.061 42.36C181.061 45.56 181.157 48.44 181.349 51H160.229C159.013 41.592 158.405 33.656 158.405 27.192C158.405 20.664 158.885 12.6 159.845 3H186.533C184.613 10.936 183.301 17.592 182.597 22.968C185.477 18.232 188.485 14.264 191.621 11.064C194.821 7.8 198.597 5.048 202.949 2.808C204.613 2.488 206.693 2.328 209.189 2.328Z" fill="white"/>
</svg>
