<?xml version="1.0" encoding="UTF-8" standalone="no"?>
<!-- Created with Inkscape (http://www.inkscape.org/) -->

<svg
   version="1.1"
   id="svg2"
   xml:space="preserve"
   width="386.564"
   height="376"
   viewBox="0 0 386.56401 376"
   sodipodi:docname="6510bd221086e931961c695dc08abdaf.ai"
   xmlns:inkscape="http://www.inkscape.org/namespaces/inkscape"
   xmlns:sodipodi="http://sodipodi.sourceforge.net/DTD/sodipodi-0.dtd"
   xmlns="http://www.w3.org/2000/svg"
   xmlns:svg="http://www.w3.org/2000/svg"><defs
     id="defs6"><clipPath
       clipPathUnits="userSpaceOnUse"
       id="clipPath16"><path
         d="M 0,768 H 1366 V 0 H 0 Z"
         id="path14" /></clipPath></defs><sodipodi:namedview
     id="namedview4"
     pagecolor="#ffffff"
     bordercolor="#666666"
     borderopacity="1.0"
     inkscape:pageshadow="2"
     inkscape:pageopacity="0.0"
     inkscape:pagecheckerboard="0" /><g
     id="g8"
     inkscape:groupmode="layer"
     inkscape:label="6510bd221086e931961c695dc08abdaf"
     transform="matrix(1.3333333,0,0,-1.3333333,-574.76932,765.33331)"><g
       id="g10"><g
         id="g12"
         clip-path="url(#clipPath16)"><g
           id="g18"
           transform="translate(721,433.1723)"><path
             d="m 0,0 c 0,-77.765 -64.901,-140.805 -144.961,-140.805 -80.06,0 -144.962,63.04 -144.962,140.805 0,77.765 64.902,140.805 144.962,140.805 C -64.901,140.805 0,77.765 0,0"
             style="fill:#000000;fill-opacity:0;fill-rule:nonzero;stroke:none"
             id="path20" /></g><g
           id="g22"
           transform="translate(513.563,470.6693)"><path
             d="M 0,0 H 56.351 V -11.185 H 13.505 V -45.507 H 53.091 V -56.538 H 13.505 V -103.27 H 0 Z"
             style="fill:#ffffff;fill-opacity:1;fill-rule:nonzero;stroke:none"
             id="path24" /></g><path
           d="M 562.329,574 H 576 V 292 h -13.671 z"
           style="fill:#ffffff;fill-opacity:1;fill-rule:nonzero;stroke:none"
           id="path26" /><g
           id="g28"
           transform="translate(607.8467,459.6349)"><path
             d="M 0,0 H -32.071 V 11.376 H 45.993 V 0 H 13.767 V -92.236 H 0 Z"
             style="fill:#ffffff;fill-opacity:1;fill-rule:nonzero;stroke:none"
             id="path30" /></g></g></g></g></svg>
